<svg width="1024" height="1024" viewBox="0 0 1024 1024" fill="none" xmlns="http://www.w3.org/2000/svg">
<path d="M913 512C913 290.534 733.466 111 512 111C290.534 111 111 290.534 111 512C111 733.466 290.534 913 512 913V1024C229.23 1024 0 794.77 0 512C0 229.23 229.23 0 512 0C794.77 0 1024 229.23 1024 512C1024 794.77 794.77 1024 512 1024V913C733.466 913 913 733.466 913 512Z" fill="white"/>
<path d="M963 454.5V565.5H87.5V454.5H963Z" fill="white"/>
<path d="M706 510C706 614.934 620.934 700 516 700C411.066 700 326 614.934 326 510C326 405.066 411.066 320 516 320C620.934 320 706 405.066 706 510Z" fill="white"/>
</svg>
